HIERARCHY
ROOT Hips
{
    OFFSET   0.000000   0.000000   0.000000
    CHANNELS 6 Xposition Yposition Zposition Zrotation Xrotation Yrotation
    JOINT Chest
    {
        OFFSET   0.000000   8.007230   0.000000
        CHANNELS 3 Zrotation Xrotation Yrotation
        JOINT Chest2
        {
            OFFSET   0.000000  22.077100   0.000000
            CHANNELS 3 Zrotation Xrotation Yrotation
            JOINT Neck
            {
                OFFSET   0.000000  23.254700   0.000000
                CHANNELS 3 Zrotation Xrotation Yrotation
                JOINT Head
                {
                    OFFSET   0.000010  14.370000   1.956610
                    CHANNELS 3 Zrotation Xrotation Yrotation
                    End Site
                    {
                        OFFSET   0.000000  19.566000   0.000000
                    }
                }
            }
            JOINT LeftCollar
            {
                OFFSET   3.911900  19.017000  -0.467063
                CHANNELS 3 Zrotation Xrotation Yrotation
                JOINT LeftShoulder
                {
                    OFFSET  10.383700   0.000000   0.000000
                    CHANNELS 3 Zrotation Xrotation Yrotation
                    JOINT LeftElbow
                    {
                        OFFSET  26.662100   0.001671   0.000522
                        CHANNELS 3 Zrotation Xrotation Yrotation
                        JOINT LeftWrist
                        {
                            OFFSET  28.869000   0.000037  -0.000114
                            CHANNELS 3 Zrotation Xrotation Yrotation
                            JOINT LeftFinger0
                            {
                                OFFSET   2.044650  -2.323450   3.252850
                                CHANNELS 3 Zrotation Xrotation Yrotation
                                JOINT LeftFinger01
                                {
                                    OFFSET   3.088140   0.000000   0.000000
                                    CHANNELS 3 Zrotation Xrotation Yrotation
                                    JOINT LeftFinger02
                                    {
                                        OFFSET   2.639460   0.000000   0.000000
                                        CHANNELS 3 Zrotation Xrotation Yrotation
                                        End Site
                                        {
                                            OFFSET   2.582190   0.000000   0.000000
                                        }
                                    }
                                }
                            }
                            JOINT LeftFinger1
                            {
                                OFFSET   8.364480   0.000000   3.252850
                                CHANNELS 3 Zrotation Xrotation Yrotation
                                JOINT LeftFinger11
                                {
                                    OFFSET   4.646930   0.000000   0.000000
                                    CHANNELS 3 Zrotation Xrotation Yrotation
                                    JOINT LeftFinger12
                                    {
                                        OFFSET   2.323470   0.000000   0.000000
                                        CHANNELS 3 Zrotation Xrotation Yrotation
                                        End Site
                                        {
                                            OFFSET   2.273050   0.000000   0.000000
                                        }
                                    }
                                }
                            }
                            JOINT LeftFinger2
                            {
                                OFFSET   8.364490   0.000016   1.078090
                                CHANNELS 3 Zrotation Xrotation Yrotation
                                JOINT LeftFinger21
                                {
                                    OFFSET   5.111620   0.000000   0.000000
                                    CHANNELS 3 Zrotation Xrotation Yrotation
                                    JOINT LeftFinger22
                                    {
                                        OFFSET   2.788150   0.000013   0.000000
                                        CHANNELS 3 Zrotation Xrotation Yrotation
                                        End Site
                                        {
                                            OFFSET   2.727660   0.000000   0.000000
                                        }
                                    }
                                }
                            }
                            JOINT LeftFinger3
                            {
                                OFFSET   7.899780   0.000016  -1.078090
                                CHANNELS 3 Zrotation Xrotation Yrotation
                                JOINT LeftFinger31
                                {
                                    OFFSET   4.646930   0.000000   0.000000
                                    CHANNELS 3 Zrotation Xrotation Yrotation
                                    JOINT LeftFinger32
                                    {
                                        OFFSET   2.323470   0.000000   0.000000
                                        CHANNELS 3 Zrotation Xrotation Yrotation
                                        End Site
                                        {
                                            OFFSET   2.273050   0.000000   0.000000
                                        }
                                    }
                                }
                            }
                            JOINT LeftFinger4
                            {
                                OFFSET   7.435080   0.000000  -3.252850
                                CHANNELS 3 Zrotation Xrotation Yrotation
                                JOINT LeftFinger41
                                {
                                    OFFSET   3.717550   0.000000   0.000000
                                    CHANNELS 3 Zrotation Xrotation Yrotation
                                    JOINT LeftFinger42
                                    {
                                        OFFSET   1.858760   0.000000   0.000000
                                        CHANNELS 3 Zrotation Xrotation Yrotation
                                        End Site
                                        {
                                            OFFSET   1.818440   0.000000   0.000000
                                        }
                                    }
                                }
                            }
                        }
                    }
                }
            }
            JOINT RightCollar
            {
                OFFSET  -3.911900  19.017000  -0.467064
                CHANNELS 3 Zrotation Xrotation Yrotation
                JOINT RightShoulder
                {
                    OFFSET -10.383700   0.000000   0.000000
                    CHANNELS 3 Zrotation Xrotation Yrotation
                    JOINT RightElbow
                    {
                        OFFSET -26.662100   0.001633   0.000260
                        CHANNELS 3 Zrotation Xrotation Yrotation
                        JOINT RightWrist
                        {
                            OFFSET -28.869000  -0.000045  -0.000080
                            CHANNELS 3 Zrotation Xrotation Yrotation
                            JOINT RightFinger0
                            {
                                OFFSET  -2.044660  -2.323490   3.252850
                                CHANNELS 3 Zrotation Xrotation Yrotation
                                JOINT RightFinger01
                                {
                                    OFFSET  -3.088140   0.000000   0.000000
                                    CHANNELS 3 Zrotation Xrotation Yrotation
                                    JOINT RightFinger02
                                    {
                                        OFFSET  -2.639450   0.000000   0.000000
                                        CHANNELS 3 Zrotation Xrotation Yrotation
                                        End Site
                                        {
                                            OFFSET  -2.582190   0.000000   0.000000
                                        }
                                    }
                                }
                            }
                            JOINT RightFinger1
                            {
                                OFFSET  -8.364480   0.000000   3.252850
                                CHANNELS 3 Zrotation Xrotation Yrotation
                                JOINT RightFinger11
                                {
                                    OFFSET  -4.646920   0.000000   0.000000
                                    CHANNELS 3 Zrotation Xrotation Yrotation
                                    JOINT RightFinger12
                                    {
                                        OFFSET  -2.323470   0.000000   0.000000
                                        CHANNELS 3 Zrotation Xrotation Yrotation
                                        End Site
                                        {
                                            OFFSET  -2.273050   0.000000   0.000000
                                        }
                                    }
                                }
                            }
                            JOINT RightFinger2
                            {
                                OFFSET  -8.364480   0.000000   1.078090
                                CHANNELS 3 Zrotation Xrotation Yrotation
                                JOINT RightFinger21
                                {
                                    OFFSET  -5.111610   0.000000   0.000000
                                    CHANNELS 3 Zrotation Xrotation Yrotation
                                    JOINT RightFinger22
                                    {
                                        OFFSET  -2.788160   0.000000   0.000000
                                        CHANNELS 3 Zrotation Xrotation Yrotation
                                        End Site
                                        {
                                            OFFSET  -2.727660   0.000000   0.000000
                                        }
                                    }
                                }
                            }
                            JOINT RightFinger3
                            {
                                OFFSET  -7.899780   0.000000  -1.078090
                                CHANNELS 3 Zrotation Xrotation Yrotation
                                JOINT RightFinger31
                                {
                                    OFFSET  -4.646930   0.000000   0.000000
                                    CHANNELS 3 Zrotation Xrotation Yrotation
                                    JOINT RightFinger32
                                    {
                                        OFFSET  -2.323470   0.000000   0.000000
                                        CHANNELS 3 Zrotation Xrotation Yrotation
                                        End Site
                                        {
                                            OFFSET  -2.273050   0.000000   0.000000
                                        }
                                    }
                                }
                            }
                            JOINT RightFinger4
                            {
                                OFFSET  -7.435090   0.000000  -3.252850
                                CHANNELS 3 Zrotation Xrotation Yrotation
                                JOINT RightFinger41
                                {
                                    OFFSET  -3.717550   0.000000   0.000000
                                    CHANNELS 3 Zrotation Xrotation Yrotation
                                    JOINT RightFinger42
                                    {
                                        OFFSET  -1.858760   0.000000   0.000000
                                        CHANNELS 3 Zrotation Xrotation Yrotation
                                        End Site
                                        {
                                            OFFSET  -1.818440   0.000000   0.000000
                                        }
                                    }
                                }
                            }
                        }
                    }
                }
            }
        }
    }
    JOINT LeftHip
    {
        OFFSET   9.782990   0.000000   0.000000
        CHANNELS 3 Zrotation Xrotation Yrotation
        JOINT LeftKnee
        {
            OFFSET  -0.000063 -41.789100   0.001657
            CHANNELS 3 Zrotation Xrotation Yrotation
            JOINT LeftAnkle
            {
                OFFSET   0.000078 -41.133200  -0.000113
                CHANNELS 3 Zrotation Xrotation Yrotation
                JOINT LeftToe
                {
                    OFFSET   0.000000  -6.358970  14.674500
                    CHANNELS 3 Zrotation Xrotation Yrotation
                    End Site
                    {
                        OFFSET   0.000000   0.000000   3.913200
                    }
                }
            }
        }
    }
    JOINT RightHip
    {
        OFFSET  -9.782990   0.000000   0.000000
        CHANNELS 3 Zrotation Xrotation Yrotation
        JOINT RightKnee
        {
            OFFSET   0.000053 -41.789200   0.000277
            CHANNELS 3 Zrotation Xrotation Yrotation
            JOINT RightAnkle
            {
                OFFSET   0.000030 -41.133200  -0.000150
                CHANNELS 3 Zrotation Xrotation Yrotation
                JOINT RightToe
                {
                    OFFSET   0.000000  -6.358960  14.674500
                    CHANNELS 3 Zrotation Xrotation Yrotation
                    End Site
                    {
                        OFFSET   0.000000   0.000000   3.913200
                    }
                }
            }
        }
    }
}
MOTION
Frames: 5
Frame Time:   0.016667
 -0.014829  89.465700  -0.748420  -5.727770 -15.130500  -6.039450   1.266020   8.296780   0.797238   2.453160  16.608700   1.429630   2.052520  -1.093800   0.036792   3.375350  -2.209860   2.490250  -2.025230  -6.305340  -3.012150 -36.767000  -9.692390 -64.271700  17.953000 -25.534600 -64.678300   8.603310 -35.355900  -1.354660  83.200900  62.722000 -120.078000 -45.037500   0.039703   0.039857 -21.604700   0.058442  -0.056381  -4.268700   0.861438 -11.296300  -3.574000   0.001735   0.082762  -2.501810   0.001997   0.057982 -72.191900  -0.011765  -0.045577 -72.204600   0.160156   0.180603 -54.153200  -0.045606   0.175182 -70.063400  -5.341060   1.944950 -70.148900  -0.028900  -0.023114 -52.611700   0.007094  -0.027746 -67.281500  -9.254480   3.856690 -101.390000  -0.012038  -0.027816 -67.525800   0.014019  -0.014502   5.688280  -2.603430   9.530820  14.100300 -17.439900  46.974300 -34.483900 -21.980600  43.748400  -3.510620 -75.675700  10.467100 -64.956100  56.738000 106.092000  34.563300   0.008073  -0.005484  12.281600   0.004036  -0.002055   0.585529   0.468150  29.897300   0.529791  -0.003158   0.033219   0.370823   0.000809   0.023154  86.415000  -0.068410  -0.059136  85.873900  -0.063126   0.053227  64.405400   0.011465   0.060260  77.320000  -4.831860  -1.104240  77.365000  -0.018736   0.005053  58.023800  -0.003666   0.014051  79.810400  -9.846930  -1.774110 110.000000  -0.001062  -0.005720  79.439700  -0.001715  -0.001129   3.594200  18.127600   4.985370   1.030340   0.054947   3.699010  -1.588190  -3.480940   1.890740  -0.000000   0.000000  -0.000000   6.259340  15.075700   0.792870  -3.459410   4.948280  -5.156020   1.266580  -4.830550   3.210020   0.000000   0.000000   0.000000
 -0.024924  89.473600  -0.691815  -5.720990 -15.088900  -6.036560   1.258800   8.225650   0.842745   2.430410  16.467300   1.524500   2.041890  -1.121970   0.037166   3.358020  -2.266770   2.313100  -2.045130  -6.124960  -3.139480 -37.605900 -10.088500 -65.164700  19.900400 -24.077100 -63.060600  14.558400 -26.466900  -0.301798  78.878200  62.747400 -118.459000 -45.151500   0.013855   0.003169 -21.395600   0.027890  -0.043870  -4.091770   0.828851 -11.240500  -3.407310   0.001395   0.069246  -2.385120   0.002101   0.048496 -73.395000   0.053763  -0.045385 -73.401600   0.119637   0.134715 -55.051100  -0.033989   0.130772 -70.242700  -5.305080   1.898410 -70.331000  -0.013292  -0.012106 -52.748300   0.007079  -0.013432 -67.676300  -9.254670   3.782210 -101.974000   0.000800  -0.000319 -67.914300   0.000190   0.000217   5.712690  -2.504070   9.474400  14.942900 -18.590900  47.713700 -34.329100 -21.650000  42.289700 -27.980800 -73.855600 -12.069400 -62.691500  56.734200 105.853000  34.482700   0.026245  -0.016176  12.241400   0.013687  -0.002061   1.027370   0.718249  28.884900   0.924934  -0.003098   0.047695   0.647446   0.000732   0.033227  82.320500  -0.026209  -0.046226  81.770700  -0.062208   0.049464  61.328100   0.008267   0.058663  75.930100  -4.832370  -1.224890  75.980500  -0.014585   0.004040  56.985400  -0.003346   0.010795  78.546700  -9.806030  -1.986610 110.000000  -0.001053  -0.005701  78.565500  -0.001669  -0.001183   3.595260  18.104200   4.984010   1.037960   0.083310   3.687400  -1.590810  -3.517090   1.906890   0.000000   0.000000   0.000000   6.247470  15.096700   0.781631  -3.434350   4.883370  -5.158110   1.256410  -4.826360   3.232020  -0.000000   0.000000   0.000000
 -0.035563  89.483100  -0.633905  -5.712160 -15.048000  -6.023510   1.251080   8.158760   0.883225   2.410790  16.334300   1.609060   2.030960  -1.140650   0.037512   3.340160  -2.304460   2.149840  -2.061040  -5.943810  -3.232780 -38.576200 -10.603000 -65.999800  21.633200 -22.204400 -61.416200  19.270300 -18.303900  -0.158978  72.545800  62.915400 -116.163000 -45.459000  -0.018799  -0.019200 -21.365800  -0.015306  -0.020689  -3.724880   0.755973 -11.207200  -3.076280   0.001032   0.042501  -2.153400   0.002195   0.029741 -75.136600   0.098366  -0.044045 -75.135500   0.056312   0.063131 -56.351700  -0.015854   0.061434 -70.295100  -5.281480   1.882770 -70.383400   0.009546   0.004391 -52.787600   0.006997   0.007690 -67.852500  -9.254550   3.736950 -102.234000   0.017262   0.036520 -68.087600  -0.018509   0.019515   5.751760  -2.410680   9.418950  16.060900 -19.839100  48.322100 -34.084700 -21.159400  41.041600 -44.108800 -70.029900 -26.116200 -59.718200  56.570200 104.878000  34.471200   0.038108  -0.026062  12.235600   0.020021  -0.002079   1.709950   1.018620  27.083600   1.525880  -0.003014   0.055928   1.068130   0.000674   0.038960  78.195200   0.015991  -0.033317  78.192300  -0.055822   0.041128  58.644300   0.004007   0.051918  74.799700  -4.837220  -1.324950  74.854700  -0.007850   0.001707  56.141100  -0.003249   0.005611  77.522700  -9.769790  -2.156660 110.000000  -0.001041  -0.005681  77.700700  -0.001627  -0.001213   3.597620  18.084300   4.979880   1.044220   0.100131   3.671820  -1.593980  -3.550340   1.914350  -0.000000   0.000000   0.000000   6.237710  15.117800   0.771160  -3.409310   4.823130  -5.165030   1.244790  -4.824820   3.241310   0.000000   0.000000  -0.000000
 -0.050914  89.497100  -0.573623  -5.698700 -15.008500  -5.990640   1.240670   8.103150   0.903443   2.389300  16.223300   1.652600   2.015210  -1.155600   0.037832   3.314300  -2.334850   2.044570  -2.084030  -5.794070  -3.255110 -39.559700 -11.142100 -66.694700  23.096600 -20.307200 -59.751400  22.851400 -10.818700  -1.909390  69.006400  63.163900 -115.124000 -45.986500  -0.026794   0.011729 -21.668500  -0.035329   0.009477  -3.141660   0.644615 -11.152000  -2.585600   0.000646   0.003105  -1.809910   0.002290   0.002151 -76.087100   0.034328  -0.013707 -76.085800   0.005607   0.006238 -57.064400  -0.001644   0.006133 -70.335500  -5.262680   1.867390 -70.423500   0.022855   0.015338 -52.817700   0.006814   0.020611 -68.086400  -9.259860   3.693320 -102.580000   0.021489   0.047421 -68.318100  -0.024191   0.024858   5.790740  -2.331860   9.387080  17.551600 -21.086100  48.802100 -33.761700 -20.675300  40.235400 -52.559600 -65.230100 -32.375300 -56.200800  55.872200 102.831000  34.958200   0.034859  -0.024275  12.479100   0.018460  -0.002108   2.757190   1.373920  25.212100   2.453140  -0.002912   0.047932   1.717200   0.000637   0.033347  75.877900   0.003741  -0.034160  75.906800  -0.038542   0.029182  56.930200   0.002939   0.036283  74.347900  -4.869360  -1.367190  74.405600  -0.001660  -0.001826  55.804300  -0.003088   0.001160  77.101100  -9.754560  -2.224410 110.000000  -0.001023  -0.005660  77.281500  -0.001589  -0.000896   3.601390  18.072900   4.968760   1.048180   0.100690   3.656190  -1.597420  -3.573770   1.909390  -0.000000   0.000000   0.000000   6.233280  15.137600   0.758526  -3.388180   4.773450  -5.176130   1.233180  -4.832160   3.236330  -0.000000   0.000000   0.000000
 -0.069143  89.513700  -0.513905  -5.679110 -14.966900  -5.941130   1.227740   8.053850   0.916692   2.359270  16.124700   1.682220   1.997970  -1.170290   0.038125   3.286090  -2.364710   1.954160  -2.114020  -5.664660  -3.264220 -40.529600 -11.667800 -67.252900  24.304600 -18.521400 -58.217300  26.024800  -4.379280  -4.773640  66.422100  63.456200 -113.823000 -46.584300  -0.027954   0.042659 -22.211800  -0.042708   0.028974  -2.755860   0.540464 -10.943300  -2.259260   0.000240  -0.023063  -1.581470   0.002379  -0.016171 -76.499200  -0.029709   0.015482 -76.499300  -0.022292  -0.024961 -57.374400   0.006540  -0.024240 -70.429500  -5.246900   1.850490 -70.519300   0.028935   0.020796 -52.889400   0.006554   0.026724 -68.332700  -9.277030   3.654190 -102.945000   0.022093   0.048978 -68.561500  -0.025002   0.025621   5.840720  -2.266860   9.354130  19.076300 -22.307400  49.227100 -33.447300 -20.129200  39.659300 -57.051300 -60.446400 -34.783600 -52.705100  54.690000 100.194000  35.824800   0.027598  -0.019798  12.912400   0.014806  -0.002146   3.924220   1.722670  23.277900   3.466920  -0.002787   0.034664   2.426820   0.000615   0.024034  74.261000  -0.082009  -0.040059  74.255100  -0.019386   0.016639  55.691300   0.002591   0.019073  74.191700  -4.905110  -1.383950  74.251200   0.001945  -0.005512  55.688400  -0.002950  -0.001369  76.943500  -9.747440  -2.247800 110.000000  -0.001002  -0.005640  77.058100  -0.001568  -0.000580   3.604590  18.059200   4.960440   1.052010   0.101250   3.637670  -1.602120  -3.591100   1.894210  -0.000000   0.000000   0.000000   6.228630  15.153800   0.751131  -3.368510   4.730830  -5.192580   1.222020  -4.848760   3.220370  -0.000000   0.000000   0.000000
